<?xml version="1.0" encoding="UTF-8"?><svg id="_레이어_2" xmlns="http://www.w3.org/2000/svg" viewBox="0 0 16.28 16.28"><defs><style>.cls-1{fill:none;}.cls-2{fill:#d2e1ed;}</style></defs><g id="_레이어_1-2"><rect class="cls-1" width="16.28" height="16.28"/><path class="cls-2" d="M10.4,6.52c.23.43.36.93.36,1.45,0,1.71-1.38,3.09-3.09,3.09-.52,0-1.02-.13-1.45-.36.52.97,1.55,1.64,2.73,1.64,1.71,0,3.09-1.38,3.09-3.09,0-1.18-.66-2.21-1.64-2.73Z"/><path class="cls-2" d="M7.81,5.72c.46-.19,1.19-.3,1.19-.3,0,0-.73-.1-1.19-.29-.19-.46-.3-1.19-.3-1.19,0,0-.1.73-.29,1.19-.46.19-1.19.3-1.19.3,0,0,.73.1,1.19.29.19.46.3,1.19.3,1.19,0,0,.1-.73.29-1.19Z"/><path class="cls-2" d="M5.35,8.18c.29-.12.74-.19.74-.19,0,0-.46-.06-.75-.18-.12-.29-.19-.74-.19-.74,0,0-.06.46-.18.75-.29.12-.74.19-.74.19,0,0,.46.06.75.18.12.29.19.74.19.74,0,0,.06-.46.18-.75Z"/></g></svg>