<?xml version="1.0" encoding="UTF-8"?><svg id="_레이어_2" xmlns="http://www.w3.org/2000/svg" viewBox="0 0 16.28 16.28"><defs><style>.cls-1,.cls-2{fill:none;}.cls-3{fill:#5fabde;}.cls-2{stroke:#92d2f4;stroke-linecap:round;stroke-linejoin:round;stroke-width:.4px;}</style></defs><g id="_레이어_1-2"><rect class="cls-1" width="16.28" height="16.28"/><line class="cls-2" x1=".8" y1="10.09" x2="7.93" y2="10.09"/><line class="cls-2" x1="1.47" y1="11.25" x2="8.6" y2="11.25"/><line class="cls-2" x1=".8" y1="12.42" x2="7.93" y2="12.42"/><path class="cls-3" d="M14.15,7.78c-.22-2.02-1.92-3.57-3.98-3.57-1.48,0-2.83.82-3.53,2.11-.02,0-.04,0-.06,0-1.55,0-2.82,1.2-2.94,2.71h.85c.12-1.05,1.01-1.87,2.09-1.87.08,0,.16,0,.26.02l.31.04.13-.28c.51-1.14,1.64-1.88,2.89-1.88,1.7,0,3.09,1.33,3.16,3.04v.29s.29.09.29.09c.61.21,1.02.77,1.02,1.41,0,.82-.67,1.49-1.49,1.49h-3.42c-.06.26-.16.54-.33.84h3.75c1.29,0,2.34-1.05,2.34-2.34,0-.91-.52-1.72-1.32-2.11Z"/></g></svg>