<?xml version="1.0" encoding="UTF-8"?><svg id="_레이어_2" xmlns="http://www.w3.org/2000/svg" viewBox="0 0 16.28 16.28"><defs><style>.cls-1,.cls-2{fill:none;}.cls-2{stroke:#92d2f4;stroke-linecap:round;stroke-linejoin:round;stroke-width:.3px;}.cls-3{fill:#3a8bb8;}</style></defs><g id="_레이어_1-2"><line class="cls-2" x1="6.89" y1="10.83" x2="5.38" y2="12.35"/><line class="cls-2" x1="8.85" y1="10.5" x2="7.34" y2="12.01"/><line class="cls-2" x1="10.29" y1="10.83" x2="8.78" y2="12.35"/><path class="cls-3" d="M12.73,6.96c-.22-2.02-1.91-3.57-3.98-3.57-1.48,0-2.83.82-3.53,2.11-.02,0-.04,0-.06,0-1.63,0-2.95,1.32-2.95,2.95,0,1.37.94,2.52,2.21,2.85l.74-.74c-1.17,0-2.11-.95-2.11-2.11s.95-2.11,2.11-2.11c.08,0,.16,0,.26.02l.31.04.13-.28c.51-1.14,1.65-1.88,2.9-1.88,1.71,0,3.1,1.34,3.17,3.04v.29s.28.09.28.09c.61.21,1.02.78,1.02,1.42,0,.68-.45,1.25-1.07,1.44l-.9.9h.47c1.29,0,2.33-1.05,2.33-2.33,0-.91-.52-1.72-1.32-2.1Z"/><line class="cls-2" x1="7.99" y1="12.89" x2="6.48" y2="14.4"/><line class="cls-2" x1="6.33" y1="12.89" x2="4.82" y2="14.4"/><line class="cls-2" x1="9.91" y1="12.89" x2="8.4" y2="14.4"/><rect class="cls-1" width="16.28" height="16.28"/></g></svg>