<?xml version="1.0" encoding="UTF-8"?><svg id="_레이어_2" xmlns="http://www.w3.org/2000/svg" viewBox="0 0 16.28 16.28"><defs><style>.cls-1{fill:none;}.cls-2{fill:#f4d546;}.cls-3{fill:#5fabde;}</style></defs><g id="_레이어_1-2"><path class="cls-3" d="M12.44,12.22h-6.56c-1.63,0-2.95-1.32-2.95-2.95s1.32-2.95,2.95-2.95c.02,0,.04,0,.06,0,.69-1.29,2.05-2.11,3.53-2.11,2.07,0,3.77,1.55,3.98,3.57.8.39,1.33,1.2,1.33,2.11,0,1.29-1.05,2.34-2.34,2.34ZM5.89,7.16c-1.16,0-2.11.95-2.11,2.11s.95,2.11,2.11,2.11h6.56c.82,0,1.49-.67,1.49-1.49,0-.64-.41-1.21-1.02-1.41l-.28-.09v-.29c-.08-1.7-1.47-3.04-3.17-3.04-1.25,0-2.38.74-2.89,1.88l-.13.29-.31-.04c-.1-.01-.18-.02-.26-.02Z"/><path class="cls-2" d="M5.58,5.83c.7-1.16,1.9-1.93,3.25-2.08-.67-1.02-1.83-1.7-3.14-1.7-2.07,0-3.75,1.68-3.75,3.75,0,.82.26,1.57.7,2.19.45-1.22,1.59-2.1,2.94-2.15Z"/><rect class="cls-1" width="16.28" height="16.28"/></g></svg>