<?xml version="1.0" encoding="UTF-8"?><svg id="_레이어_2" xmlns="http://www.w3.org/2000/svg" viewBox="0 0 16.28 16.28"><defs><style>.cls-1{fill:none;}.cls-2{fill:#3a8bb8;}.cls-3{fill:#92d2f4;}</style></defs><g id="_레이어_1-2"><path class="cls-2" d="M12.73,6.99c-.22-2.02-1.91-3.57-3.98-3.57-1.48,0-2.83.82-3.53,2.11-.02,0-.04,0-.06,0-1.63,0-2.95,1.32-2.95,2.95,0,1.37.94,2.52,2.21,2.85l.74-.74c-1.17,0-2.11-.95-2.11-2.11s.95-2.11,2.11-2.11c.08,0,.16,0,.26.02l.31.04.13-.28c.51-1.14,1.65-1.88,2.9-1.88,1.71,0,3.1,1.34,3.17,3.04v.29s.28.09.28.09c.61.21,1.02.78,1.02,1.42,0,.68-.45,1.25-1.07,1.44l-.9.9h.47c1.29,0,2.33-1.05,2.33-2.33,0-.91-.52-1.72-1.32-2.1Z"/><path class="cls-3" d="M9.81,11.62h0c-.27-.47-.49-1.35-.49-1.35,0,0-.21.88-.49,1.35h0c-.09.11-.15.25-.15.4,0,.35.28.63.63.63s.63-.28.63-.63c0-.15-.06-.29-.15-.4Z"/><path class="cls-3" d="M7.43,11.62h0c-.27-.47-.49-1.35-.49-1.35,0,0-.21.88-.49,1.35h0c-.09.11-.15.25-.15.4,0,.35.28.63.63.63s.63-.28.63-.63c0-.15-.06-.29-.15-.4Z"/><path class="cls-3" d="M8.5,14.17h0c-.2-.35-.36-1-.36-1,0,0-.16.66-.36,1h0c-.07.08-.11.18-.11.3,0,.26.21.47.47.47s.47-.21.47-.47c0-.11-.04-.22-.11-.3Z"/><path class="cls-3" d="M11.1,14h0c-.2-.35-.36-1-.36-1,0,0-.16.66-.36,1h0c-.07.08-.11.18-.11.3,0,.26.21.47.47.47s.47-.21.47-.47c0-.11-.04-.22-.11-.3Z"/><path class="cls-3" d="M5.68,14.17h0c-.2-.35-.36-1-.36-1,0,0-.16.66-.36,1h0c-.07.08-.11.18-.11.3,0,.26.21.47.47.47s.47-.21.47-.47c0-.11-.04-.22-.11-.3Z"/><rect class="cls-1" width="16.28" height="16.28"/></g></svg>