<?xml version="1.0" encoding="UTF-8"?><svg id="_레이어_2" xmlns="http://www.w3.org/2000/svg" viewBox="0 0 16.28 16.28"><defs><style>.cls-1{fill:none;}.cls-2{fill:#5fabde;}</style></defs><g id="_레이어_1-2"><rect class="cls-1" width="16.28" height="16.28"/><path class="cls-2" d="M12.73,6.99c-.22-2.02-1.91-3.57-3.98-3.57-1.48,0-2.83.82-3.53,2.11-.02,0-.04,0-.06,0-1.63,0-2.95,1.32-2.95,2.95,0,1.37.94,2.52,2.21,2.85l.74-.74c-1.17,0-2.11-.95-2.11-2.11s.95-2.11,2.11-2.11c.08,0,.16,0,.26.02l.31.04.13-.28c.51-1.14,1.65-1.88,2.9-1.88,1.71,0,3.1,1.34,3.17,3.04v.29s.28.09.28.09c.61.21,1.02.78,1.02,1.42,0,.68-.45,1.25-1.07,1.44l-.9.9h.47c1.29,0,2.33-1.05,2.33-2.33,0-.91-.52-1.72-1.32-2.1Z"/><path class="cls-2" d="M7.66,10.93c0,.36-.29.65-.65.65s-.65-.29-.65-.65.29-.65.65-.65.65.29.65.65Z"/><path class="cls-2" d="M9.91,10.93c0,.36-.29.65-.65.65s-.65-.29-.65-.65.29-.65.65-.65.65.29.65.65Z"/><path class="cls-2" d="M8.47,12.68c0,.28-.22.5-.5.5s-.5-.22-.5-.5.22-.5.5-.5.5.22.5.5Z"/><path class="cls-2" d="M6.37,12.68c0,.28-.22.5-.5.5s-.5-.22-.5-.5.22-.5.5-.5.5.22.5.5Z"/><path class="cls-2" d="M10.57,12.68c0,.28-.22.5-.5.5s-.5-.22-.5-.5.22-.5.5-.5.5.22.5.5Z"/><path class="cls-2" d="M9.16,14.52c0,.2-.16.36-.36.36s-.36-.16-.36-.36.16-.36.36-.36.36.16.36.36Z"/></g></svg>