<?xml version="1.0" encoding="UTF-8"?><svg id="_레이어_2" xmlns="http://www.w3.org/2000/svg" viewBox="0 0 73.7 56.69"><defs><style>.cls-1{fill:none;}.cls-2{fill:#d4d5d5;}</style></defs><g id="_레이어_1-2"><path class="cls-2" d="M57.28,8.85h-20.78c-.54,0-1.03.29-1.3.75l-4.17,7.22c-.29.5-1.01.5-1.3,0l-4.17-7.22c-.27-.46-.76-.75-1.3-.75h-10.27c-.54,0-1.03.29-1.3.75L2.3,27.6c-.27.46-.27,1.04,0,1.5l10.39,18c.27.46.76.75,1.3.75h20.78c.54,0,1.03-.29,1.3-.75l4.17-7.22c.29-.5,1.01-.5,1.3,0l4.17,7.22c.27.46.76.75,1.3.75h10.27c.54,0,1.03-.29,1.3-.75l10.39-18c.27-.46.27-1.04,0-1.5l-10.39-18c-.27-.46-.76-.75-1.3-.75M18.32,37.35l-4.76-8.25c-.27-.46-.27-1.04,0-1.5l4.76-8.25c.27-.46.76-.75,1.3-.75h8.77c.54,0,1.03.29,1.3.75l5.14,8.9c.27.46.27,1.04,0,1.5l-4.39,7.6c-.27.47-.76.75-1.3.75h-9.52c-.54,0-1.03-.29-1.3-.75M51.65,38.1h-8.77c-.54,0-1.03-.29-1.3-.75l-5.14-8.9c-.27-.46-.27-1.04,0-1.5l4.39-7.6c.27-.46.76-.75,1.3-.75h9.52c.54,0,1.03.29,1.3.75l4.76,8.25c.27.46.27,1.04,0,1.5l-4.76,8.25c-.27.46-.76.75-1.3.75"/><rect class="cls-1" width="73.7" height="56.69"/></g></svg>