<?xml version="1.0" encoding="UTF-8"?><svg id="_레이어_2" xmlns="http://www.w3.org/2000/svg" viewBox="0 0 270.27 40.51"><defs><style>.cls-1{fill:#1c1b1a;}</style></defs><g id="_레이어_1-2"><path class="cls-1" d="M0,31.46V.38h6.53v25.2h11.58v5.88H0Z"/><path class="cls-1" d="M19.5,21.24c0-6.19,5.05-10.79,11.2-10.79s11.17,4.6,11.17,10.79-5.09,10.79-11.17,10.79-11.2-4.6-11.2-10.79ZM35.34,21.24c0-2.94-2.04-5.09-4.64-5.09s-4.68,2.15-4.68,5.09,2,5.13,4.68,5.13,4.64-2.19,4.64-5.13Z"/><path class="cls-1" d="M44.1,21.24c0-6.19,5.05-10.79,11.2-10.79s11.17,4.6,11.17,10.79-5.09,10.79-11.17,10.79-11.2-4.6-11.2-10.79ZM59.94,21.24c0-2.94-2.04-5.09-4.64-5.09s-4.68,2.15-4.68,5.09,2,5.13,4.68,5.13,4.64-2.19,4.64-5.13Z"/><path class="cls-1" d="M69.82,39.79V11.01h5.92v2.45c1.32-1.74,3.7-2.94,6.19-2.94,5.43,0,9.84,4.45,9.84,10.71s-4.45,10.71-9.84,10.71c-2.41,0-4.6-1.06-6-2.64.15,1.89.23,4,.23,6.41v4.07h-6.34ZM85.21,21.24c0-2.83-1.85-5.05-4.49-5.05s-4.49,2.26-4.49,5.05,1.85,5.09,4.49,5.09,4.49-2.26,4.49-5.09Z"/><path class="cls-1" d="M114.9,23.27h-14.56c.6,2.07,2.38,3.39,5.66,3.39,2.75,0,4.64-.49,7.28-1.51v5.28c-.94.6-4.04,1.51-7.54,1.51-7.66,0-11.73-4.75-11.73-10.75s4.3-10.79,10.71-10.79c5.43,0,10.34,3.73,10.34,10.34,0,.79-.08,1.7-.15,2.53ZM108.86,19.05c-.11-1.32-1.28-3.4-4.15-3.4-2.19,0-3.7,1.32-4.34,3.4h8.49Z"/><path class="cls-1" d="M118.44,31.46V11.01h6.04v3.55c.72-2.07,2.79-4.04,5.92-4.04.68,0,1.25.08,1.58.15v6.04c-.45-.08-.98-.15-1.55-.15-3.13,0-5.62,2-5.62,6.45v8.45h-6.37Z"/><path class="cls-1" d="M134.89,38.89v-5.77c2.56,1.21,4.71,2,7.73,2,4.04,0,5.92-1.81,5.92-4.98,0-.45.04-.98.08-1.47-1.47,1.7-3.81,2.68-5.92,2.68-5.62,0-9.96-4.34-9.96-10.37s4.41-10.45,9.81-10.45c2.53,0,4.9,1.21,6.19,2.94v-2.45h5.96v18.9c0,7.32-5.43,10.6-11.5,10.6-4.3,0-7.28-1.13-8.3-1.62ZM148.36,20.97c0-2.68-1.92-4.9-4.56-4.9s-4.53,2.19-4.53,4.9,1.92,4.87,4.53,4.87,4.56-2.19,4.56-4.87Z"/><path class="cls-1" d="M178.99,23.27h-14.56c.6,2.07,2.38,3.39,5.66,3.39,2.75,0,4.64-.49,7.28-1.51v5.28c-.94.6-4.04,1.51-7.54,1.51-7.66,0-11.73-4.75-11.73-10.75s4.3-10.79,10.71-10.79c5.43,0,10.34,3.73,10.34,10.34,0,.79-.08,1.7-.15,2.53ZM172.95,19.05c-.11-1.32-1.28-3.4-4.15-3.4-2.19,0-3.7,1.32-4.34,3.4h8.49Z"/><path class="cls-1" d="M184.23,24.56v-8.3h-3.85v-5.24h3.85v-4.94h6.37v4.94h5.09v5.24h-5.09v7.51c0,1.36.68,2.23,2.15,2.23,1.06,0,2.07-.19,2.94-.38v5.73c-1.06.26-2.26.57-4.22.57-4.19,0-7.24-2.83-7.24-7.36Z"/><path class="cls-1" d="M206.79,25.65v-7.13h-6.94v-5.51h6.94v-7.13h5.96v7.13h7.05v5.51h-7.05v7.13h-5.96Z"/><path class="cls-1" d="M254.39,31.46l-1.92-4.6h-12.98l-1.92,4.6h-7.17L244.89,0h2.3l14.48,31.46h-7.28ZM241.83,21.27h8.3l-4.15-9.88-4.15,9.88Z"/><path class="cls-1" d="M263.75,31.46V.38h6.53v31.08h-6.53Z"/></g></svg>